<svg width="100" height="58" viewBox="0 0 100 58" fill="none" xmlns="http://www.w3.org/2000/svg">
<rect x="0.5" y="0.5" width="99" height="57" stroke="white"/>
<path d="M9.0625 22H7.94886L12.1818 10.3636H13.3182L17.5511 22H16.4375L12.7898 11.7443H12.7102L9.0625 22ZM9.86364 17.5398H15.6364V18.4943H9.86364V17.5398ZM20.2952 25.2727V13.2727H21.2782V14.9375H21.3975C21.5187 14.6761 21.6854 14.4091 21.8975 14.1364C22.1096 13.8598 22.3899 13.6269 22.7384 13.4375C23.0907 13.2481 23.5339 13.1534 24.068 13.1534C24.7877 13.1534 25.4164 13.3428 25.9543 13.7216C26.496 14.0966 26.9164 14.6231 27.2157 15.3011C27.5187 15.9754 27.6702 16.7614 27.6702 17.6591C27.6702 18.5606 27.5187 19.3504 27.2157 20.0284C26.9164 20.7064 26.496 21.2348 25.9543 21.6136C25.4164 21.9924 24.7914 22.1818 24.0793 22.1818C23.5528 22.1818 23.1115 22.0871 22.7555 21.8977C22.4032 21.7083 22.1172 21.4754 21.8975 21.1989C21.6816 20.9186 21.5149 20.6458 21.3975 20.3807H21.3066V25.2727H20.2952ZM21.2952 17.642C21.2952 18.3466 21.3994 18.9716 21.6077 19.517C21.8198 20.0587 22.1229 20.4848 22.5168 20.7955C22.9145 21.1023 23.3956 21.2557 23.96 21.2557C24.5395 21.2557 25.0282 21.0966 25.4259 20.7784C25.8274 20.4564 26.1323 20.0227 26.3407 19.4773C26.5528 18.9318 26.6589 18.3201 26.6589 17.642C26.6589 16.9716 26.5547 16.3674 26.3464 15.8295C26.1418 15.2917 25.8388 14.8655 25.4373 14.5511C25.0358 14.233 24.5433 14.0739 23.96 14.0739C23.3918 14.0739 22.9089 14.2273 22.5111 14.5341C22.1134 14.8371 21.8104 15.2576 21.602 15.7955C21.3975 16.3295 21.2952 16.9451 21.2952 17.642ZM33.2865 22.1989C32.76 22.1989 32.2789 22.0966 31.8433 21.892C31.4077 21.6837 31.0611 21.3845 30.8035 20.9943C30.5459 20.6004 30.4172 20.1231 30.4172 19.5625C30.4172 19.1307 30.4986 18.767 30.6615 18.4716C30.8244 18.1761 31.0554 17.9337 31.3547 17.7443C31.6539 17.5549 32.0081 17.4053 32.4172 17.2955C32.8263 17.1856 33.277 17.1004 33.7694 17.0398C34.2581 16.9792 34.6709 16.9261 35.0081 16.8807C35.349 16.8352 35.6084 16.7633 35.7865 16.6648C35.9645 16.5663 36.0535 16.4072 36.0535 16.1875V15.983C36.0535 15.3883 35.8755 14.9205 35.5194 14.5795C35.1672 14.2348 34.6596 14.0625 33.9967 14.0625C33.3679 14.0625 32.8547 14.2008 32.4569 14.4773C32.063 14.7538 31.7865 15.0795 31.6274 15.4545L30.6672 15.108C30.8641 14.6307 31.1369 14.25 31.4853 13.9659C31.8338 13.678 32.224 13.4716 32.6558 13.3466C33.0876 13.2178 33.5251 13.1534 33.9683 13.1534C34.3016 13.1534 34.6482 13.197 35.0081 13.2841C35.3717 13.3712 35.7088 13.5227 36.0194 13.7386C36.33 13.9508 36.5819 14.2481 36.7751 14.6307C36.9683 15.0095 37.0649 15.4905 37.0649 16.0739V22H36.0535V20.6193H35.991C35.8698 20.8769 35.6899 21.1269 35.4513 21.3693C35.2126 21.6117 34.9134 21.8106 34.5535 21.9659C34.1937 22.1212 33.7713 22.1989 33.2865 22.1989ZM33.4228 21.2727C33.9607 21.2727 34.4266 21.1534 34.8206 20.9148C35.2145 20.6761 35.5175 20.3598 35.7297 19.9659C35.9456 19.5682 36.0535 19.1307 36.0535 18.6534V17.392C35.9778 17.464 35.8509 17.5284 35.6728 17.5852C35.4986 17.642 35.2959 17.6932 35.0649 17.7386C34.8376 17.7803 34.6103 17.8163 34.3831 17.8466C34.1558 17.8769 33.9513 17.9034 33.7694 17.9261C33.277 17.9867 32.8566 18.0814 32.5081 18.2102C32.1596 18.339 31.8925 18.517 31.7069 18.7443C31.5213 18.9678 31.4285 19.2557 31.4285 19.608C31.4285 20.1383 31.6179 20.5492 31.9967 20.8409C32.3755 21.1288 32.8509 21.2727 33.4228 21.2727ZM40.7152 22V13.2727H41.6982V14.6136H41.772C41.9463 14.1742 42.2493 13.8201 42.6811 13.5511C43.1167 13.2784 43.6092 13.142 44.1584 13.142C44.2417 13.142 44.3345 13.1439 44.4368 13.1477C44.5391 13.1515 44.6243 13.1553 44.6925 13.1591V14.1875C44.647 14.1799 44.5675 14.1686 44.4539 14.1534C44.3402 14.1383 44.2171 14.1307 44.0845 14.1307C43.63 14.1307 43.2247 14.2273 42.8686 14.4205C42.5164 14.6098 42.238 14.8731 42.0334 15.2102C41.8289 15.5473 41.7266 15.9318 41.7266 16.3636V22H40.7152ZM51.3627 13.2727V14.1534H47.198V13.2727H51.3627ZM48.4991 11.1818H49.5161V19.7216C49.5161 20.0852 49.5786 20.3712 49.7036 20.5795C49.8286 20.7841 49.9915 20.9299 50.1923 21.017C50.393 21.1004 50.607 21.142 50.8343 21.142C50.9669 21.142 51.0805 21.1345 51.1752 21.1193C51.2699 21.1004 51.3533 21.0814 51.4252 21.0625L51.6411 21.9773C51.5427 22.0152 51.4214 22.0492 51.2775 22.0795C51.1336 22.1136 50.9555 22.1307 50.7434 22.1307C50.3722 22.1307 50.0142 22.0492 49.6695 21.8864C49.3286 21.7235 49.0483 21.4811 48.8286 21.1591C48.6089 20.8371 48.4991 20.4375 48.4991 19.9602V11.1818ZM54.6196 22V13.2727H55.6026V14.6136H55.6935C55.8677 14.1629 56.1575 13.8087 56.5628 13.5511C56.9719 13.2898 57.4624 13.1591 58.0344 13.1591C58.6366 13.1591 59.131 13.3011 59.5173 13.5852C59.9075 13.8655 60.1991 14.2519 60.3923 14.7443H60.4662C60.6632 14.2595 60.9832 13.875 61.4264 13.5909C61.8734 13.303 62.4151 13.1591 63.0514 13.1591C63.862 13.1591 64.5022 13.4148 64.9719 13.9261C65.4416 14.4337 65.6764 15.1761 65.6764 16.1534V22H64.6651V16.1534C64.6651 15.464 64.4889 14.947 64.1366 14.6023C63.7844 14.2576 63.3204 14.0852 62.7446 14.0852C62.0779 14.0852 61.5647 14.2898 61.2048 14.6989C60.845 15.108 60.6651 15.6269 60.6651 16.2557V22H59.631V16.0625C59.631 15.4716 59.4662 14.9943 59.1366 14.6307C58.8071 14.267 58.3431 14.0852 57.7446 14.0852C57.3431 14.0852 56.9813 14.1837 56.6594 14.3807C56.3412 14.5777 56.0893 14.8523 55.9037 15.2045C55.7219 15.553 55.631 15.9545 55.631 16.4091V22H54.6196ZM71.7515 22.1989C71.225 22.1989 70.7439 22.0966 70.3083 21.892C69.8727 21.6837 69.5261 21.3845 69.2685 20.9943C69.0109 20.6004 68.8822 20.1231 68.8822 19.5625C68.8822 19.1307 68.9636 18.767 69.1265 18.4716C69.2894 18.1761 69.5204 17.9337 69.8197 17.7443C70.1189 17.5549 70.4731 17.4053 70.8822 17.2955C71.2912 17.1856 71.742 17.1004 72.2344 17.0398C72.7231 16.9792 73.1359 16.9261 73.4731 16.8807C73.814 16.8352 74.0734 16.7633 74.2515 16.6648C74.4295 16.5663 74.5185 16.4072 74.5185 16.1875V15.983C74.5185 15.3883 74.3405 14.9205 73.9844 14.5795C73.6322 14.2348 73.1246 14.0625 72.4617 14.0625C71.8329 14.0625 71.3197 14.2008 70.9219 14.4773C70.528 14.7538 70.2515 15.0795 70.0924 15.4545L69.1322 15.108C69.3291 14.6307 69.6019 14.25 69.9503 13.9659C70.2988 13.678 70.689 13.4716 71.1208 13.3466C71.5526 13.2178 71.9901 13.1534 72.4333 13.1534C72.7666 13.1534 73.1132 13.197 73.4731 13.2841C73.8367 13.3712 74.1738 13.5227 74.4844 13.7386C74.795 13.9508 75.0469 14.2481 75.2401 14.6307C75.4333 15.0095 75.5299 15.4905 75.5299 16.0739V22H74.5185V20.6193H74.456C74.3348 20.8769 74.1549 21.1269 73.9162 21.3693C73.6776 21.6117 73.3784 21.8106 73.0185 21.9659C72.6587 22.1212 72.2363 22.1989 71.7515 22.1989ZM71.8878 21.2727C72.4257 21.2727 72.8916 21.1534 73.2856 20.9148C73.6795 20.6761 73.9825 20.3598 74.1947 19.9659C74.4106 19.5682 74.5185 19.1307 74.5185 18.6534V17.392C74.4428 17.464 74.3159 17.5284 74.1378 17.5852C73.9636 17.642 73.7609 17.6932 73.5299 17.7386C73.3026 17.7803 73.0753 17.8163 72.8481 17.8466C72.6208 17.8769 72.4162 17.9034 72.2344 17.9261C71.742 17.9867 71.3216 18.0814 70.9731 18.2102C70.6246 18.339 70.3575 18.517 70.1719 18.7443C69.9863 18.9678 69.8935 19.2557 69.8935 19.608C69.8935 20.1383 70.0829 20.5492 70.4617 20.8409C70.8405 21.1288 71.3159 21.2727 71.8878 21.2727ZM80.1916 16.5455V22H79.1802V13.2727H80.1632V14.642H80.2541C80.4586 14.1951 80.7768 13.8371 81.2086 13.5682C81.6442 13.2955 82.1821 13.1591 82.8223 13.1591C83.4094 13.1591 83.9245 13.2822 84.3677 13.5284C84.8147 13.7708 85.1613 14.1288 85.4075 14.6023C85.6575 15.0758 85.7825 15.6572 85.7825 16.3466V22H84.7711V16.4091C84.7711 15.6932 84.5704 15.1269 84.1689 14.7102C83.7711 14.2936 83.237 14.0852 82.5666 14.0852C82.1083 14.0852 81.7011 14.1837 81.345 14.3807C80.9889 14.5777 80.7067 14.8617 80.4984 15.233C80.2939 15.6004 80.1916 16.0379 80.1916 16.5455ZM89.4172 22V13.2727H90.4343V22H89.4172ZM89.9343 11.7727C89.7259 11.7727 89.5479 11.7027 89.4002 11.5625C89.2524 11.4186 89.1786 11.2462 89.1786 11.0455C89.1786 10.8447 89.2524 10.6742 89.4002 10.5341C89.5479 10.3902 89.7259 10.3182 89.9343 10.3182C90.1426 10.3182 90.3206 10.3902 90.4684 10.5341C90.6161 10.6742 90.6899 10.8447 90.6899 11.0455C90.6899 11.2462 90.6161 11.4186 90.4684 11.5625C90.3206 11.7027 90.1426 11.7727 89.9343 11.7727Z" fill="white"/>
<line x1="34" y1="28" x2="66" y2="28" stroke="white" stroke-width="2"/>
<path d="M12.1818 47H7.88068V35.3636H12.1761C13.3617 35.3636 14.3826 35.5966 15.2386 36.0625C16.0985 36.5246 16.7614 37.1913 17.2273 38.0625C17.6932 38.9299 17.9261 39.9678 17.9261 41.1761C17.9261 42.3883 17.6932 43.4299 17.2273 44.3011C16.7652 45.1723 16.1042 45.8409 15.2443 46.3068C14.3845 46.7689 13.3636 47 12.1818 47ZM10.6932 44.6023H12.0739C12.7254 44.6023 13.2765 44.4924 13.7273 44.2727C14.1818 44.0492 14.5246 43.6875 14.7557 43.1875C14.9905 42.6837 15.108 42.0133 15.108 41.1761C15.108 40.339 14.9905 39.6723 14.7557 39.1761C14.5208 38.6761 14.1742 38.3163 13.7159 38.0966C13.2614 37.8731 12.7008 37.7614 12.0341 37.7614H10.6932V44.6023ZM30.5511 41.1818C30.5511 42.4621 30.3049 43.5473 29.8125 44.4375C29.3201 45.3277 28.6534 46.0038 27.8125 46.4659C26.9754 46.928 26.036 47.1591 24.9943 47.1591C23.9489 47.1591 23.0076 46.9261 22.1705 46.4602C21.3333 45.9943 20.6686 45.3182 20.1761 44.4318C19.6875 43.5417 19.4432 42.4583 19.4432 41.1818C19.4432 39.9015 19.6875 38.8163 20.1761 37.9261C20.6686 37.036 21.3333 36.3598 22.1705 35.8977C23.0076 35.4356 23.9489 35.2045 24.9943 35.2045C26.036 35.2045 26.9754 35.4356 27.8125 35.8977C28.6534 36.3598 29.3201 37.036 29.8125 37.9261C30.3049 38.8163 30.5511 39.9015 30.5511 41.1818ZM27.6761 41.1818C27.6761 40.4242 27.5682 39.7841 27.3523 39.2614C27.1402 38.7386 26.8333 38.3428 26.4318 38.0739C26.0341 37.8049 25.5549 37.6705 24.9943 37.6705C24.4375 37.6705 23.9583 37.8049 23.5568 38.0739C23.1553 38.3428 22.8466 38.7386 22.6307 39.2614C22.4186 39.7841 22.3125 40.4242 22.3125 41.1818C22.3125 41.9394 22.4186 42.5795 22.6307 43.1023C22.8466 43.625 23.1553 44.0208 23.5568 44.2898C23.9583 44.5587 24.4375 44.6932 24.9943 44.6932C25.5549 44.6932 26.0341 44.5587 26.4318 44.2898C26.8333 44.0208 27.1402 43.625 27.3523 43.1023C27.5682 42.5795 27.6761 41.9394 27.6761 41.1818ZM32.1932 35.3636H35.6761L38.6307 42.5682H38.767L41.7216 35.3636H45.2045V47H42.4659V39.8523H42.3693L39.5739 46.9261H37.8239L35.0284 39.8125H34.9318V47H32.1932V35.3636ZM49.4759 47H46.4531L50.3793 35.3636H54.1236L58.0497 47H55.027L52.294 38.2955H52.2031L49.4759 47ZM49.0724 42.4205H55.3906V44.5568H49.0724V42.4205ZM66.392 39.1648C66.3277 38.9261 66.233 38.7159 66.108 38.5341C65.983 38.3485 65.8295 38.1913 65.6477 38.0625C65.4659 37.9337 65.2576 37.8371 65.0227 37.7727C64.7879 37.7045 64.5303 37.6705 64.25 37.6705C63.6856 37.6705 63.197 37.8068 62.7841 38.0795C62.375 38.3523 62.0587 38.75 61.8352 39.2727C61.6117 39.7917 61.5 40.4223 61.5 41.1648C61.5 41.911 61.608 42.5473 61.8239 43.0739C62.0398 43.6004 62.3523 44.0019 62.7614 44.2784C63.1705 44.5549 63.6667 44.6932 64.25 44.6932C64.7652 44.6932 65.2008 44.6098 65.5568 44.4432C65.9167 44.2727 66.1894 44.0322 66.375 43.7216C66.5606 43.411 66.6534 43.0455 66.6534 42.625L67.1761 42.6875H64.3466V40.6364H69.3636V42.1761C69.3636 43.2178 69.142 44.1098 68.6989 44.8523C68.2595 45.5947 67.6534 46.1648 66.8807 46.5625C66.1117 46.9602 65.2273 47.1591 64.2273 47.1591C63.1174 47.1591 62.142 46.9186 61.3011 46.4375C60.4602 45.9564 59.8049 45.2708 59.3352 44.3807C58.8655 43.4867 58.6307 42.4261 58.6307 41.1989C58.6307 40.2443 58.7727 39.3977 59.0568 38.6591C59.3409 37.9167 59.7367 37.2879 60.2443 36.7727C60.7557 36.2576 61.3466 35.8674 62.017 35.6023C62.6913 35.3371 63.4167 35.2045 64.1932 35.2045C64.8674 35.2045 65.4943 35.3011 66.0739 35.4943C66.6572 35.6875 67.1723 35.9602 67.6193 36.3125C68.0701 36.6648 68.4356 37.0833 68.7159 37.5682C68.9962 38.053 69.1705 38.5852 69.2386 39.1648H66.392ZM82.0043 41.1818C82.0043 42.4621 81.758 43.5473 81.2656 44.4375C80.7732 45.3277 80.1065 46.0038 79.2656 46.4659C78.4285 46.928 77.4891 47.1591 76.4474 47.1591C75.402 47.1591 74.4607 46.9261 73.6236 46.4602C72.7865 45.9943 72.1217 45.3182 71.6293 44.4318C71.1406 43.5417 70.8963 42.4583 70.8963 41.1818C70.8963 39.9015 71.1406 38.8163 71.6293 37.9261C72.1217 37.036 72.7865 36.3598 73.6236 35.8977C74.4607 35.4356 75.402 35.2045 76.4474 35.2045C77.4891 35.2045 78.4285 35.4356 79.2656 35.8977C80.1065 36.3598 80.7732 37.036 81.2656 37.9261C81.758 38.8163 82.0043 39.9015 82.0043 41.1818ZM79.1293 41.1818C79.1293 40.4242 79.0213 39.7841 78.8054 39.2614C78.5933 38.7386 78.2865 38.3428 77.8849 38.0739C77.4872 37.8049 77.008 37.6705 76.4474 37.6705C75.8906 37.6705 75.4115 37.8049 75.0099 38.0739C74.6084 38.3428 74.2997 38.7386 74.0838 39.2614C73.8717 39.7841 73.7656 40.4242 73.7656 41.1818C73.7656 41.9394 73.8717 42.5795 74.0838 43.1023C74.2997 43.625 74.6084 44.0208 75.0099 44.2898C75.4115 44.5587 75.8906 44.6932 76.4474 44.6932C77.008 44.6932 77.4872 44.5587 77.8849 44.2898C78.2865 44.0208 78.5933 43.625 78.8054 43.1023C79.0213 42.5795 79.1293 41.9394 79.1293 41.1818ZM88.3736 35.3636H91.1463V43.4091C91.1425 44.1629 90.9626 44.822 90.6065 45.3864C90.2505 45.947 89.758 46.3826 89.1293 46.6932C88.5043 47.0038 87.7808 47.1591 86.9588 47.1591C86.2315 47.1591 85.5705 47.0322 84.9759 46.7784C84.3849 46.5246 83.9134 46.1307 83.5611 45.5966C83.2126 45.0625 83.0402 44.3788 83.044 43.5455H85.8452C85.8565 43.8447 85.9134 44.1004 86.0156 44.3125C86.1217 44.5208 86.2675 44.678 86.4531 44.7841C86.6387 44.8902 86.8603 44.9432 87.1179 44.9432C87.3868 44.9432 87.6141 44.8864 87.7997 44.7727C87.9853 44.6553 88.1255 44.483 88.2202 44.2557C88.3187 44.0284 88.3698 43.7462 88.3736 43.4091V35.3636Z" fill="white"/>
</svg>
